# xmcd CD database file
#
# Track frame offsets:
#	150
#	17312
#	45650
#	62397
#	83450
#	102875
#	126050
#	146587
#	162700
#	189312
#	215062
#	244500
#	271577
#	289597
#	304925
#
# Disc length: 4361 seconds
#
# Revision: 0
# Processed by: cddbd v1.5.2PL0 Copyright (c) Steve Scherf et al.
# Submitted via: CDex 1.70beta2
#
DISCID=c211070f
DTITLE=Fitzgerald/Armstrong - A fine Romance
DYEAR=1900
DGENRE=Blues
TTITLE0=Can't We Be Friends
TTITLE1=Isn't This a Lovely Day
TTITLE2=Moonlight in Vermont
TTITLE3=They Can't Take That Away from Me
TTITLE4=Under a Blanket of Blue
TTITLE5=Tenderly
TTITLE6=A Foggy Day
TTITLE7=Stars Fell on Alabama
TTITLE8=Cheek to Cheek
TTITLE9=The Nearness of You
TTITLE10=April in Paris
TTITLE11=How Long Has This Been Going On
TTITLE12=Love Is Here To Stay
TTITLE13=I Was Doing All Right
TTITLE14=There's A Boat Dat's Leavin' Soon For New York
EXTD=
EXTT0=
EXTT1=
EXTT2=
EXTT3=
EXTT4=
EXTT5=
EXTT6=
EXTT7=
EXTT8=
EXTT9=
EXTT10=
EXTT11=
EXTT12=
EXTT13=
EXTT14=
PLAYORDER=
